<svg width="180" height="52" viewBox="0 0 180 52" fill="none" xmlns="http://www.w3.org/2000/svg">
<path d="M173.333 52H6.66667C3.00167 52 0 49.0734 0 45.5V6.5C0 2.92663 3.00167 2.74817e-06 6.66667 2.74817e-06H173.333C176.998 2.74817e-06 180 2.92663 180 6.5V45.5C180 49.0734 176.998 52 173.333 52Z" fill="#F6F7F8"/>
<path d="M173.333 1.04162C176.42 1.04162 178.932 3.4905 178.932 6.5V45.5C178.932 48.5095 176.42 50.9584 173.333 50.9584H6.66667C3.58 50.9584 1.06833 48.5095 1.06833 45.5V6.5C1.06833 3.4905 3.58 1.04162 6.66667 1.04162H173.333ZM173.333 2.74817e-06H6.66667C3.00167 2.74817e-06 0 2.92663 0 6.5V45.5C0 49.0734 3.00167 52 6.66667 52H173.333C176.998 52 180 49.0734 180 45.5V6.5C180 2.92663 176.998 2.74817e-06 173.333 2.74817e-06Z" fill="#A6A6A6"/>
<path d="M13.9133 9.80037C13.5216 10.2001 13.2949 10.8225 13.2949 11.6285V40.378C13.2949 41.184 13.5216 41.8064 13.9133 42.2061L14.0099 42.2939L30.5332 26.1901V25.8099L14.0099 9.70612L13.9133 9.80037Z" fill="url(#paint0_linear_55_1313)"/>
<path d="M36.0349 31.5607L30.5332 26.1901V25.8099L36.0415 20.4392L36.1649 20.5091L42.6882 24.128C44.5499 25.155 44.5499 26.845 42.6882 27.8785L36.1649 31.4909L36.0349 31.5607Z" fill="url(#paint1_linear_55_1313)"/>
<path d="M36.165 31.4909L30.5333 26L13.9133 42.2061C14.5317 42.8399 15.54 42.9162 16.6867 42.2825L36.165 31.4909Z" fill="url(#paint2_linear_55_1313)"/>
<path d="M36.165 20.5091L16.6867 9.71751C15.54 9.09025 14.5317 9.16663 13.9133 9.80038L30.5333 26L36.165 20.5091Z" fill="url(#paint3_linear_55_1313)"/>
<path d="M63.2234 13.3169C63.2234 14.4024 62.8901 15.2718 62.2334 15.9201C61.4784 16.6887 60.4951 17.0755 59.2901 17.0755C58.1384 17.0755 57.155 16.6822 56.3484 15.9071C55.54 15.1206 55.1367 14.1554 55.1367 13C55.1367 11.8446 55.54 10.8794 56.3484 10.0994C57.155 9.31775 58.1384 8.9245 59.2901 8.9245C59.8634 8.9245 60.41 9.03987 60.9317 9.25437C61.4517 9.4705 61.875 9.763 62.1817 10.1237L61.4851 10.8095C60.95 10.1936 60.2217 9.88975 59.2901 9.88975C58.4501 9.88975 57.7217 10.1757 57.1034 10.7526C56.4917 11.3311 56.185 12.0802 56.185 13C56.185 13.9197 56.4917 14.6754 57.1034 15.2539C57.7217 15.8242 58.4501 16.1167 59.2901 16.1167C60.1817 16.1167 60.9317 15.8242 61.5234 15.2474C61.9134 14.8655 62.1351 14.339 62.1934 13.6662H59.2901V12.727H63.1634C63.2101 12.9301 63.2234 13.1267 63.2234 13.3169Z" fill="#2D3142" stroke="#2D3142" stroke-width="0.16" stroke-miterlimit="10"/>
<path d="M69.3683 10.0604H65.73V12.5304H69.01V13.4696H65.73V15.9396H69.3683V16.8967H64.7V9.10325H69.3683V10.0604Z" fill="#2D3142" stroke="#2D3142" stroke-width="0.16" stroke-miterlimit="10"/>
<path d="M73.705 16.8967H72.675V10.0604H70.4434V9.10325H75.9384V10.0604H73.705V16.8967Z" fill="#2D3142" stroke="#2D3142" stroke-width="0.16" stroke-miterlimit="10"/>
<path d="M79.915 16.8967V9.10325H80.9434V16.8967H79.915Z" fill="#2D3142" stroke="#2D3142" stroke-width="0.16" stroke-miterlimit="10"/>
<path d="M85.5016 16.8967H84.48V10.0604H82.24V9.10325H87.7416V10.0604H85.5016V16.8967Z" fill="#2D3142" stroke="#2D3142" stroke-width="0.16" stroke-miterlimit="10"/>
<path d="M98.1451 15.8941C97.3568 16.6822 96.3801 17.0755 95.2151 17.0755C94.0434 17.0755 93.0668 16.6822 92.2784 15.8941C91.4918 15.1076 91.1001 14.1424 91.1001 13C91.1001 11.8576 91.4918 10.8924 92.2784 10.1059C93.0668 9.31775 94.0434 8.9245 95.2151 8.9245C96.3734 8.9245 97.3501 9.31775 98.1384 10.1124C98.9318 10.9054 99.3234 11.8641 99.3234 13C99.3234 14.1424 98.9318 15.1076 98.1451 15.8941ZM93.0401 15.2409C93.6334 15.8242 94.3551 16.1167 95.2151 16.1167C96.0684 16.1167 96.7968 15.8242 97.3834 15.2409C97.9751 14.6575 98.2751 13.9084 98.2751 13C98.2751 12.0916 97.9751 11.3425 97.3834 10.7591C96.7968 10.1758 96.0684 9.88325 95.2151 9.88325C94.3551 9.88325 93.6334 10.1758 93.0401 10.7591C92.4484 11.3425 92.1484 12.0916 92.1484 13C92.1484 13.9084 92.4484 14.6575 93.0401 15.2409Z" fill="#2D3142" stroke="#2D3142" stroke-width="0.16" stroke-miterlimit="10"/>
<path d="M100.768 16.8967V9.10325H102.018L105.905 15.1645H105.95L105.905 13.6662V9.10325H106.933V16.8967H105.86L101.79 10.5365H101.745L101.79 12.0412V16.8967H100.768Z" fill="#2D3142" stroke="#2D3142" stroke-width="0.16" stroke-miterlimit="10"/>
<path d="M90.8466 28.2783C87.715 28.2783 85.1566 30.602 85.1566 33.8081C85.1566 36.9883 87.715 39.3364 90.8466 39.3364C93.985 39.3364 96.5433 36.9883 96.5433 33.8081C96.5433 30.602 93.985 28.2783 90.8466 28.2783ZM90.8466 37.1589C89.1283 37.1589 87.65 35.776 87.65 33.8081C87.65 31.8143 89.1283 30.4558 90.8466 30.4558C92.565 30.4558 94.05 31.8143 94.05 33.8081C94.05 35.776 92.565 37.1589 90.8466 37.1589ZM78.4316 28.2783C75.2933 28.2783 72.7416 30.602 72.7416 33.8081C72.7416 36.9883 75.2933 39.3364 78.4316 39.3364C81.5683 39.3364 84.1216 36.9883 84.1216 33.8081C84.1216 30.602 81.5683 28.2783 78.4316 28.2783ZM78.4316 37.1589C76.7116 37.1589 75.2283 35.776 75.2283 33.8081C75.2283 31.8143 76.7116 30.4558 78.4316 30.4558C80.15 30.4558 81.6283 31.8143 81.6283 33.8081C81.6283 35.776 80.15 37.1589 78.4316 37.1589ZM63.6583 29.9731V32.3229H69.4133C69.245 33.6359 68.795 34.6011 68.105 35.2739C67.265 36.0864 65.9566 36.9883 63.6583 36.9883C60.1166 36.9883 57.3433 34.2014 57.3433 30.7483C57.3433 27.2951 60.1166 24.5083 63.6583 24.5083C65.5733 24.5083 66.9666 25.2379 67.995 26.1836L69.6933 24.5278C68.255 23.1888 66.3416 22.1601 63.6583 22.1601C58.8016 22.1601 54.72 26.013 54.72 30.7483C54.72 35.4835 58.8016 39.3364 63.6583 39.3364C66.2833 39.3364 68.255 38.4979 69.805 36.9249C71.3933 35.3763 71.8883 33.1988 71.8883 31.4405C71.8883 30.8945 71.8416 30.3924 71.7583 29.9731H63.6583ZM124.068 31.7948C123.6 30.5581 122.155 28.2783 119.212 28.2783C116.295 28.2783 113.867 30.5191 113.867 33.8081C113.867 36.9054 116.27 39.3364 119.492 39.3364C122.097 39.3364 123.6 37.7878 124.218 36.8859L122.285 35.6298C121.64 36.5495 120.762 37.1589 119.492 37.1589C118.23 37.1589 117.325 36.595 116.745 35.4835L124.33 32.4236L124.068 31.7948ZM116.335 33.6359C116.27 31.5039 118.033 30.4119 119.297 30.4119C120.287 30.4119 121.127 30.8945 121.407 31.5851L116.335 33.6359ZM110.17 39H112.663V22.75H110.17V39ZM106.087 29.51H106.003C105.443 28.8633 104.375 28.2783 103.022 28.2783C100.182 28.2783 97.585 30.7093 97.585 33.826C97.585 36.9249 100.182 39.3364 103.022 39.3364C104.375 39.3364 105.443 38.7465 106.003 38.0803H106.087V38.8733C106.087 40.9874 104.928 42.1233 103.06 42.1233C101.537 42.1233 100.592 41.0508 100.202 40.1489L98.0333 41.0313C98.6583 42.497 100.313 44.3008 103.06 44.3008C105.983 44.3008 108.45 42.6238 108.45 38.5434V28.6146H106.087V29.51ZM103.235 37.1589C101.517 37.1589 100.078 35.7565 100.078 33.826C100.078 31.8776 101.517 30.4558 103.235 30.4558C104.928 30.4558 106.263 31.8776 106.263 33.826C106.263 35.7565 104.928 37.1589 103.235 37.1589ZM135.742 22.75H129.778V39H132.265V32.8429H135.742C138.503 32.8429 141.212 30.8945 141.212 27.7956C141.212 24.6984 138.497 22.75 135.742 22.75ZM135.807 30.5825H132.265V25.0104H135.807C137.663 25.0104 138.723 26.5135 138.723 27.7956C138.723 29.0534 137.663 30.5825 135.807 30.5825ZM151.178 28.2474C149.382 28.2474 147.513 29.0209 146.745 30.7353L148.952 31.6371C149.427 30.7353 150.3 30.4428 151.223 30.4428C152.513 30.4428 153.822 31.1984 153.842 32.5325V32.7031C153.392 32.4496 152.428 32.0743 151.243 32.0743C148.867 32.0743 146.445 33.3499 146.445 35.7305C146.445 37.908 148.392 39.3104 150.58 39.3104C152.253 39.3104 153.177 38.5743 153.757 37.7179H153.842V38.974H156.243V32.7405C156.243 29.8594 154.037 28.2474 151.178 28.2474ZM150.878 37.1524C150.065 37.1524 148.932 36.7591 148.932 35.776C148.932 34.5183 150.345 34.0356 151.568 34.0356C152.663 34.0356 153.177 34.2713 153.842 34.5816C153.647 36.0864 152.318 37.1524 150.878 37.1524ZM164.993 28.6033L162.135 35.6476H162.05L159.095 28.6033H156.413L160.853 38.4475L158.32 43.9254H160.918L167.76 28.6033H164.993ZM142.578 39H145.072V22.75H142.578V39Z" fill="#2D3142"/>
<defs>
<linearGradient id="paint0_linear_55_1313" x1="29.0662" y1="40.6774" x2="7.25605" y2="18.308" gradientUnits="userSpaceOnUse">
<stop stop-color="#00A0FF"/>
<stop offset="0.0066" stop-color="#00A1FF"/>
<stop offset="0.2601" stop-color="#00BEFF"/>
<stop offset="0.5122" stop-color="#00D2FF"/>
<stop offset="0.7604" stop-color="#00DFFF"/>
<stop offset="1" stop-color="#00E3FF"/>
</linearGradient>
<linearGradient id="paint1_linear_55_1313" x1="45.1124" y1="25.9982" x2="12.8499" y2="25.9982" gradientUnits="userSpaceOnUse">
<stop stop-color="#FFE000"/>
<stop offset="0.4087" stop-color="#FFBD00"/>
<stop offset="0.7754" stop-color="#FFA500"/>
<stop offset="1" stop-color="#FF9C00"/>
</linearGradient>
<linearGradient id="paint2_linear_55_1313" x1="33.1027" y1="23.0151" x2="3.52635" y2="-7.3196" gradientUnits="userSpaceOnUse">
<stop stop-color="#FF3A44"/>
<stop offset="1" stop-color="#C31162"/>
</linearGradient>
<linearGradient id="paint3_linear_55_1313" x1="9.72973" y1="51.7709" x2="22.9369" y2="38.2253" gradientUnits="userSpaceOnUse">
<stop stop-color="#32A071"/>
<stop offset="0.0685" stop-color="#2DA771"/>
<stop offset="0.4762" stop-color="#15CF74"/>
<stop offset="0.8009" stop-color="#06E775"/>
<stop offset="1" stop-color="#00F076"/>
</linearGradient>
</defs>
</svg>
