<svg width="256" height="230" viewBox="0 0 256 230" fill="none" xmlns="http://www.w3.org/2000/svg">
<path d="M35.04 180.362C29.5468 180.362 24.8364 179.606 20.9089 178.093C17.0079 176.607 13.903 174.577 11.5943 172.003C9.28555 169.429 7.78619 166.536 7.09622 163.325L22.7797 161.216C23.2574 162.436 24.0137 163.577 25.0487 164.639C26.0836 165.7 27.4503 166.549 29.1487 167.186C30.8736 167.85 32.9701 168.182 35.438 168.182C39.1267 168.182 42.1652 167.279 44.5536 165.475C46.9685 163.697 48.1759 160.711 48.1759 156.518V145.333H47.4594C46.7164 147.031 45.6018 148.637 44.1157 150.149C42.6296 151.662 40.7189 152.896 38.3837 153.851C36.0484 154.807 33.262 155.284 30.0244 155.284C25.4335 155.284 21.2539 154.223 17.4856 152.1C13.7438 149.95 10.7584 146.673 8.52924 142.268C6.32664 137.836 5.22535 132.237 5.22535 125.47C5.22535 118.544 6.35318 112.758 8.60885 108.114C10.8645 103.47 13.8632 99.994 17.605 97.6853C21.3733 95.3765 25.4998 94.2222 29.9846 94.2222C33.4079 94.2222 36.2739 94.806 38.5827 95.9736C40.8914 97.1147 42.749 98.5477 44.1555 100.273C45.5885 101.971 46.6898 103.643 47.4594 105.288H48.0963V95.0183H64.9342V156.757C64.9342 161.959 63.6604 166.311 61.1128 169.814C58.5653 173.316 55.0358 175.944 50.5245 177.695C46.0397 179.473 40.8782 180.362 35.04 180.362ZM35.3982 142.547C38.1316 142.547 40.4403 141.87 42.3244 140.516C44.2351 139.136 45.6947 137.173 46.7031 134.625C47.738 132.051 48.2555 128.973 48.2555 125.39C48.2555 121.808 47.7513 118.703 46.7429 116.076C45.7345 113.422 44.2749 111.365 42.3643 109.906C40.4536 108.446 38.1316 107.716 35.3982 107.716C32.6118 107.716 30.2633 108.473 28.3526 109.985C26.4419 111.471 24.9956 113.541 24.0137 116.195C23.0319 118.849 22.5409 121.914 22.5409 125.39C22.5409 128.92 23.0319 131.971 24.0137 134.546C25.0221 137.093 26.4684 139.07 28.3526 140.477C30.2633 141.857 32.6118 142.547 35.3982 142.547ZM78.4284 156.16V95.0183H94.8682V105.686H95.5051C96.6197 101.891 98.4906 99.0254 101.118 97.0882C103.745 95.1244 106.77 94.1426 110.194 94.1426C111.043 94.1426 111.958 94.1956 112.94 94.3018C113.922 94.4079 114.784 94.5539 115.527 94.7396V109.786C114.731 109.547 113.63 109.335 112.224 109.149C110.817 108.964 109.53 108.871 108.362 108.871C105.868 108.871 103.639 109.415 101.675 110.503C99.7378 111.564 98.1987 113.05 97.0576 114.961C95.943 116.872 95.3857 119.074 95.3857 121.569V156.16H78.4284ZM139.978 157.315C136.077 157.315 132.601 156.638 129.549 155.284C126.497 153.904 124.082 151.874 122.304 149.194C120.553 146.487 119.677 143.117 119.677 139.083C119.677 135.687 120.301 132.834 121.548 130.525C122.795 128.216 124.494 126.359 126.643 124.952C128.793 123.546 131.234 122.484 133.968 121.768C136.727 121.051 139.62 120.547 142.645 120.255C146.201 119.884 149.067 119.539 151.243 119.22C153.419 118.875 154.998 118.371 155.98 117.708C156.962 117.044 157.453 116.062 157.453 114.762V114.523C157.453 112.002 156.657 110.052 155.065 108.672C153.499 107.292 151.27 106.602 148.377 106.602C145.326 106.602 142.897 107.279 141.093 108.632C139.288 109.959 138.094 111.631 137.51 113.647L121.827 112.374C122.623 108.658 124.189 105.447 126.524 102.741C128.859 100.007 131.871 97.9109 135.56 96.4513C139.275 94.9652 143.574 94.2222 148.457 94.2222C151.854 94.2222 155.105 94.6202 158.209 95.4163C161.341 96.2125 164.114 97.4465 166.529 99.1183C168.97 100.79 170.894 102.94 172.301 105.567C173.707 108.168 174.41 111.286 174.41 114.921V156.16H158.329V147.681H157.851C156.869 149.592 155.556 151.277 153.91 152.737C152.265 154.17 150.288 155.298 147.979 156.12C145.671 156.916 143.004 157.315 139.978 157.315ZM144.835 145.612C147.329 145.612 149.532 145.121 151.442 144.139C153.353 143.13 154.852 141.777 155.94 140.079C157.028 138.38 157.572 136.456 157.572 134.307V127.818C157.042 128.163 156.312 128.482 155.383 128.774C154.481 129.039 153.459 129.291 152.318 129.53C151.177 129.742 150.036 129.941 148.895 130.127C147.754 130.286 146.719 130.432 145.79 130.565C143.8 130.857 142.061 131.321 140.575 131.958C139.089 132.595 137.935 133.458 137.112 134.546C136.29 135.607 135.878 136.934 135.878 138.526C135.878 140.835 136.714 142.6 138.386 143.82C140.084 145.015 142.234 145.612 144.835 145.612ZM220.088 95.0183V107.756H183.267V95.0183H220.088ZM191.626 80.3697H208.584V137.372C208.584 138.937 208.823 140.158 209.3 141.034C209.778 141.883 210.441 142.48 211.291 142.825C212.166 143.17 213.175 143.343 214.316 143.343C215.112 143.343 215.908 143.276 216.704 143.144C217.5 142.984 218.111 142.865 218.535 142.785L221.202 155.404C220.353 155.669 219.159 155.974 217.62 156.319C216.081 156.691 214.21 156.916 212.007 156.996C207.92 157.155 204.338 156.611 201.259 155.364C198.208 154.117 195.833 152.18 194.134 149.552C192.436 146.925 191.6 143.608 191.626 139.601V80.3697ZM231.134 156.16V95.0183H248.091V156.16H231.134ZM239.652 87.1367C237.131 87.1367 234.968 86.3008 233.164 84.6289C231.386 82.9306 230.497 80.9005 230.497 78.5386C230.497 76.2034 231.386 74.1998 233.164 72.528C234.968 70.8296 237.131 69.9804 239.652 69.9804C242.173 69.9804 244.323 70.8296 246.101 72.528C247.905 74.1998 248.808 76.2034 248.808 78.5386C248.808 80.9005 247.905 82.9306 246.101 84.6289C244.323 86.3008 242.173 87.1367 239.652 87.1367Z" fill="#6874E8"/>
<path fill-rule="evenodd" clip-rule="evenodd" d="M64.8293 20.2415C65.6718 22.4721 66.9883 24.4701 68.6558 26.1127C48.1 40.1519 32.6708 61.1448 25.7551 85.7043C23.1338 85.8 20.5203 86.4622 18.0062 87.6222C24.8129 59.7713 41.8134 35.9183 64.8293 20.2415ZM39.5837 186.085C48.9577 197.863 60.6059 207.751 73.8638 215.084C74.578 212.801 75.7795 210.734 77.3464 209.003C66.099 202.797 56.0828 194.634 47.7573 184.972C45.2733 185.595 42.5542 185.986 39.5837 186.085ZM104.404 226.625C112.378 228.384 120.664 229.312 129.168 229.312C175.728 229.312 215.794 201.503 233.662 161.589H225.933C208.558 197.522 171.757 222.306 129.168 222.306C121.147 222.306 113.332 221.427 105.814 219.76C105.814 219.83 105.815 219.901 105.815 219.971C105.815 222.341 105.311 224.592 104.404 226.625ZM129.168 0.454559C173.724 0.454559 212.333 25.9207 231.232 63.0918C229.074 64.2451 227.205 65.8684 225.762 67.8251C208.317 32.0829 171.618 7.4604 129.168 7.4604C117.727 7.4604 106.705 9.24878 96.3639 12.5612C96.0846 10.1547 95.2826 7.90753 94.0745 5.93624C105.133 2.37692 116.926 0.454559 129.168 0.454559ZM89.4679 14.4662C89.4679 19.6252 85.2857 23.8074 80.1268 23.8074C74.9678 23.8074 70.7856 19.6252 70.7856 14.4662C70.7856 9.30728 74.9678 5.12512 80.1268 5.12512C85.2857 5.12512 89.4679 9.30728 89.4679 14.4662ZM98.809 219.971C98.809 225.13 94.6268 229.312 89.4679 229.312C84.3089 229.312 80.1268 225.13 80.1268 219.971C80.1268 214.812 84.3089 210.63 89.4679 210.63C94.6268 210.63 98.809 214.812 98.809 219.971Z" fill="#6874E8"/>
</svg>
