<svg width="21" height="22" viewBox="0 0 21 22" fill="none" xmlns="http://www.w3.org/2000/svg">
<path fill-rule="evenodd" clip-rule="evenodd" d="M10.5 21.5C16.299 21.5 21 16.799 21 11C21 5.20101 16.299 0.5 10.5 0.5C4.70101 0.5 0 5.20101 0 11C0 16.799 4.70101 21.5 10.5 21.5ZM10.5 12.75C8.38659 12.75 6.98426 12.5038 5.25001 12.1667C4.85393 12.0902 4.08334 12.1667 4.08334 13.3333C4.08334 15.6667 6.76376 18.5833 10.5 18.5833C14.2357 18.5833 16.9167 15.6667 16.9167 13.3333C16.9167 12.1667 16.1461 12.0897 15.75 12.1667C14.0158 12.5038 12.6134 12.75 10.5 12.75ZM8.45832 8.37498C8.45832 9.50256 7.80541 10.4166 6.99999 10.4166C6.19457 10.4166 5.54166 9.50256 5.54166 8.37498C5.54166 7.2474 6.19457 6.33331 6.99999 6.33331C7.80541 6.33331 8.45832 7.2474 8.45832 8.37498ZM14 10.4166C14.8054 10.4166 15.4583 9.50256 15.4583 8.37498C15.4583 7.2474 14.8054 6.33331 14 6.33331C13.1946 6.33331 12.5417 7.2474 12.5417 8.37498C12.5417 9.50256 13.1946 10.4166 14 10.4166ZM10.5 13.9166C7 13.9166 5.25 13.3333 5.25 13.3333C5.25 13.3333 6.41667 15.6666 10.5 15.6666C14.5833 15.6666 15.75 13.3333 15.75 13.3333C15.75 13.3333 14 13.9166 10.5 13.9166Z" fill="#C4C4C4"/>
</svg>
