<svg width="16" height="21" viewBox="0 0 16 21" fill="none" xmlns="http://www.w3.org/2000/svg">
<path fill-rule="evenodd" clip-rule="evenodd" d="M2.625 0H9.57206C9.92013 7.43366e-05 10.2539 0.138404 10.5 0.384563L15.3654 5.25C15.6116 5.49608 15.7499 5.82987 15.75 6.17794V18.375C15.75 19.0712 15.4734 19.7389 14.9812 20.2312C14.4889 20.7234 13.8212 21 13.125 21H2.625C1.92881 21 1.26113 20.7234 0.768845 20.2312C0.276562 19.7389 0 19.0712 0 18.375V2.625C0 1.92881 0.276562 1.26113 0.768845 0.768845C1.26113 0.276562 1.92881 0 2.625 0V0ZM9.84375 1.96875V4.59375C9.84375 4.94185 9.98203 5.27569 10.2282 5.52183C10.4743 5.76797 10.8082 5.90625 11.1562 5.90625H13.7812L9.84375 1.96875ZM2.84156 17.9393C2.95969 18.1755 3.14344 18.3894 3.41644 18.4892C3.68813 18.5876 3.95719 18.5417 4.17769 18.4498C4.59506 18.2792 5.01113 17.8776 5.39306 17.4182C5.83013 16.8919 6.2895 16.2015 6.73313 15.4363C7.58957 15.1825 8.46661 15.0042 9.35419 14.9034C9.74794 15.4061 10.1548 15.8393 10.5486 16.1503C10.9161 16.4391 11.34 16.6793 11.7744 16.6976C12.0111 16.7093 12.2454 16.6459 12.4438 16.5165C12.6473 16.3839 12.7982 16.1923 12.9084 15.9705C13.0266 15.7329 13.0987 15.4849 13.0896 15.2316C13.0812 14.9818 12.9887 14.7422 12.8271 14.5517C12.5304 14.1973 12.0448 14.0267 11.5671 13.9414C10.9875 13.8516 10.3995 13.8296 9.81487 13.8757C9.32119 13.1778 8.89073 12.4373 8.52863 11.6629C8.85675 10.7966 9.10219 9.97762 9.21112 9.30825C9.25837 9.02213 9.28331 8.74913 9.27413 8.50238C9.27249 8.25745 9.21551 8.01605 9.10744 7.79625C9.04517 7.67494 8.95669 7.56902 8.8484 7.48616C8.74011 7.4033 8.61474 7.34558 8.48137 7.31719C8.21625 7.26075 7.94325 7.31719 7.69256 7.41825C7.19775 7.61513 6.93656 8.03512 6.83813 8.49844C6.74231 8.94469 6.78562 9.46444 6.8985 9.98944C7.014 10.5223 7.21088 11.1024 7.46287 11.6891C7.05979 12.6916 6.59425 13.6678 6.069 14.6121C5.39259 14.8249 4.74059 15.1086 4.12388 15.4586C3.63825 15.7474 3.20644 16.0886 2.94656 16.4916C2.67094 16.9194 2.58562 17.4287 2.84156 17.9393Z" fill="#9F9EA1"/>
</svg>
