<svg width="21" height="21" viewBox="0 0 21 21" fill="none" xmlns="http://www.w3.org/2000/svg">
<path fill-rule="evenodd" clip-rule="evenodd" d="M10.5 21C16.299 21 21 16.299 21 10.5C21 4.70101 16.299 0 10.5 0C4.70101 0 0 4.70101 0 10.5C0 16.299 4.70101 21 10.5 21ZM10.5 12.25C8.38659 12.25 6.98426 12.0038 5.25001 11.6667C4.85393 11.5902 4.08334 11.6667 4.08334 12.8333C4.08334 15.1667 6.76376 18.0833 10.5 18.0833C14.2357 18.0833 16.9167 15.1667 16.9167 12.8333C16.9167 11.6667 16.1461 11.5897 15.75 11.6667C14.0158 12.0038 12.6134 12.25 10.5 12.25ZM8.45832 7.87498C8.45832 9.00256 7.80541 9.91665 6.99999 9.91665C6.19457 9.91665 5.54166 9.00256 5.54166 7.87498C5.54166 6.7474 6.19457 5.83331 6.99999 5.83331C7.80541 5.83331 8.45832 6.7474 8.45832 7.87498ZM14 9.91665C14.8054 9.91665 15.4583 9.00256 15.4583 7.87498C15.4583 6.7474 14.8054 5.83331 14 5.83331C13.1946 5.83331 12.5417 6.7474 12.5417 7.87498C12.5417 9.00256 13.1946 9.91665 14 9.91665ZM10.5 13.4166C7 13.4166 5.25 12.8333 5.25 12.8333C5.25 12.8333 6.41667 15.1666 10.5 15.1666C14.5833 15.1666 15.75 12.8333 15.75 12.8333C15.75 12.8333 14 13.4166 10.5 13.4166Z" fill="#9F9EA2"/>
</svg>
