<svg width="26" height="14" viewBox="0 0 26 14" fill="none" xmlns="http://www.w3.org/2000/svg">
<path d="M25.5469 0.319338H18.1641C18.0352 0.319338 17.9297 0.424807 17.9297 0.553713V12.4482C17.9297 12.5772 18.0352 12.6826 18.1641 12.6826H19.8984C20.0273 12.6826 20.1328 12.5772 20.1328 12.4482V7.66993H25.0605C25.1895 7.66993 25.2949 7.56446 25.2949 7.43555V6.06153C25.2949 5.93262 25.1895 5.82715 25.0605 5.82715H20.1328V2.22949H25.5469C25.6758 2.22949 25.7812 2.12403 25.7812 1.99512V0.553713C25.7812 0.424807 25.6758 0.319338 25.5469 0.319338ZM15.1172 0.348635H13.4766C13.3477 0.348635 13.2422 0.454104 13.2422 0.58301V12.4775C13.2422 12.6064 13.3477 12.7119 13.4766 12.7119H15.1172C15.2461 12.7119 15.3516 12.6064 15.3516 12.4775V0.58301C15.3516 0.454104 15.2461 0.348635 15.1172 0.348635ZM11.1328 6.23438H6.40137C6.27246 6.23438 6.16699 6.33985 6.16699 6.46875V7.74903C6.16699 7.87793 6.27246 7.9834 6.40137 7.9834H9.18164L9.17285 8.24414C9.1377 9.9668 7.83691 11.1299 5.92383 11.1299C3.69141 11.1299 2.29395 9.38086 2.29395 6.53906C2.29395 3.73242 3.66504 1.99219 5.85352 1.99219C7.45898 1.99219 8.58105 2.78028 9.03223 4.20117H11.2646C10.8662 1.64649 8.74512 2.51712e-06 5.85352 2.51712e-06C2.28516 -0.00292717 0 2.55176 0 6.55664C0 10.6084 2.25879 13.1221 5.88867 13.1221C9.23145 13.1221 11.3672 11.0508 11.3672 7.80176V6.46875C11.3672 6.33985 11.2617 6.23438 11.1328 6.23438Z" fill="#9F9EA1"/>
</svg>
