<svg width="21" height="21" viewBox="0 0 21 21" fill="none" xmlns="http://www.w3.org/2000/svg">
<path d="M2.33333 21H18.6667C19.2855 21 19.879 20.7542 20.3166 20.3166C20.7542 19.879 21 19.2855 21 18.6667V2.33333C21 1.71449 20.7542 1.121 20.3166 0.683417C19.879 0.245833 19.2855 0 18.6667 0H2.33333C1.71449 0 1.121 0.245833 0.683417 0.683417C0.245833 1.121 0 1.71449 0 2.33333V18.6667C0 19.2855 0.245833 19.879 0.683417 20.3166C1.121 20.7542 1.71449 21 2.33333 21ZM5.83333 12.8333L8.59017 15.5902L12.8333 9.33333L18.6667 17.5H2.33333L5.83333 12.8333Z" fill="#9F9EA1"/>
</svg>
