<svg width="32" height="31" viewBox="0 0 32 31" fill="none" xmlns="http://www.w3.org/2000/svg">
<path d="M16.9841 28.9805C14.0113 29.4752 10.9583 29.0372 8.24456 27.7266C5.53083 26.416 3.28955 24.2972 1.8287 21.6613C0.367853 19.0254 -0.24087 16.0018 0.0861784 13.0059C0.413227 10.0101 1.66 7.18906 3.65517 4.93046C5.65034 2.67186 8.29599 1.08654 11.2286 0.392343C14.1612 -0.30185 17.2368 -0.0708481 20.0328 1.05361C22.8288 2.17806 25.2079 4.14078 26.8433 6.67207C28.4788 9.20336 29.2902 12.179 29.166 15.1901C28.6887 14.4786 28.0517 13.8884 27.3059 13.4667C27.2041 12.2891 26.9383 11.1314 26.5163 10.0273H21.5322C21.7091 11.1361 21.824 12.3014 21.866 13.505C21.1365 13.9299 20.5165 14.519 20.0533 15.2192C20.0973 13.4808 19.974 11.7421 19.6849 10.0273H9.49432C9.24091 11.5337 9.11524 13.0589 9.11865 14.5864C9.11865 16.1967 9.25178 17.7322 9.49432 19.1456H19.2235C19.3329 19.8003 19.5609 20.4148 19.88 20.9692H9.88458C10.1636 22.0452 10.5083 23.0226 10.9058 23.8725C12.0219 26.276 13.3896 27.352 14.5896 27.352C15.1732 27.352 15.7987 27.0967 16.4132 26.555C16.4315 27.3812 16.6139 28.2091 16.9841 28.9805ZM18.277 5.30041C17.1555 2.89684 15.7877 1.82088 14.5896 1.82088C13.3915 1.82088 12.0237 2.89684 10.9022 5.30041C10.4753 6.23515 10.1347 7.20694 9.88458 8.20366H19.2983C19.0471 7.2068 18.7052 6.235 18.277 5.30041ZM8.0044 8.20366C8.32536 6.84869 8.74663 5.61043 9.24995 4.52901C9.58915 3.80137 9.98124 3.11932 10.4207 2.51752C7.51607 3.52445 5.07059 5.54272 3.53099 8.20366H8.00622H8.0044ZM7.295 14.5864C7.295 12.9999 7.41719 11.4643 7.64697 10.0273H2.66293C2.10677 11.4829 1.82243 13.0282 1.82405 14.5864C1.82405 16.1912 2.12131 17.7304 2.66293 19.1456H7.64697C7.41033 17.6374 7.29264 16.113 7.295 14.5864ZM9.24995 24.6439C8.71143 23.4643 8.29411 22.2331 8.0044 20.9692H3.53099C5.07059 23.6302 7.51607 25.6484 10.4207 26.6553C9.9667 26.0241 9.57462 25.3504 9.24995 24.6439ZM25.6482 8.20366C24.1087 5.54261 21.6632 3.5243 18.7585 2.51752C19.198 3.11932 19.59 3.80137 19.9292 4.52901C20.4326 5.61043 20.8538 6.84869 21.1748 8.20366H25.6482ZM28.267 18.2337C28.267 19.2011 27.8827 20.1288 27.1987 20.8128C26.5147 21.4968 25.587 21.881 24.6197 21.881C23.6524 21.881 22.7246 21.4968 22.0406 20.8128C21.3566 20.1288 20.9724 19.2011 20.9724 18.2337C20.9724 17.2664 21.3566 16.3387 22.0406 15.6547C22.7246 14.9707 23.6524 14.5864 24.6197 14.5864C25.587 14.5864 26.5147 14.9707 27.1987 15.6547C27.8827 16.3387 28.267 17.2664 28.267 18.2337ZM31.0025 26.4402C31.0025 28.7106 29.1788 30.9993 24.6197 30.9993C20.0606 30.9993 18.2369 28.7197 18.2369 26.4402C18.2369 25.7147 18.5251 25.0189 19.0381 24.5059C19.5511 23.9929 20.2469 23.7047 20.9724 23.7047H28.267C28.9925 23.7047 29.6882 23.9929 30.2012 24.5059C30.7142 25.0189 31.0025 25.7147 31.0025 26.4402Z" fill="#4B5066" fill-opacity="0.5"/>
</svg>
